<svg width="16" height="23" viewBox="0 0 16 23" fill="none" xmlns="http://www.w3.org/2000/svg">
<g clip-path="url(#clip0_327_186)">
<path d="M13.4659 21.2134H2.4668V23H13.4659V21.2134Z" fill="#A7A9AC"/>
<path d="M0 6.59009L2.26124 20.6179H13.2587L15.5216 6.59009H0ZM3.46904 19.5586L1.98813 8.07081L2.58015 8.01386L4.06277 19.5033L3.46904 19.5586ZM4.8855 19.5716L4.48516 8.01549L5.08058 7.99921L5.48092 19.5554L4.8855 19.5716ZM7.20102 19.5684L6.6056 19.5651L6.6972 8.0041L7.29262 8.00735L7.20102 19.5684ZM8.94317 19.5684L8.34775 19.5651L8.43935 8.0041L9.03477 8.00735L8.94317 19.5684ZM10.5276 19.5716L9.93215 19.5472L10.5445 7.99759L11.1399 8.02199L10.5276 19.5716ZM12.0509 19.5586L11.4589 19.5017L12.9415 8.01223L13.5335 8.06918L12.0509 19.5586Z" fill="#A7A9AC"/>
<path d="M15.6134 6.16697L0.117188 2.41473L0.447976 1.38148C0.676984 0.668777 1.55569 0.258731 2.41066 0.465381L14.8093 3.46913C15.666 3.67578 16.1732 4.42265 15.9459 5.13535L15.6134 6.16697Z" fill="#A7A9AC"/>
<path d="M11.4633 3.46421L10.5727 3.2478L10.9866 1.95745C11.0019 1.91189 10.9833 1.87447 10.9714 1.85657C10.9595 1.83867 10.9324 1.80613 10.8798 1.79311L6.81871 0.808675C6.76612 0.795658 6.72201 0.810302 6.70166 0.821692C6.6813 0.831455 6.64228 0.855863 6.62871 0.901424L6.2148 2.19339L5.32422 1.97698L5.73813 0.686638C5.81446 0.445817 5.99597 0.245676 6.24703 0.122011C6.4981 -0.00165373 6.78987 -0.0325699 7.06637 0.0341439L11.1257 1.01695C11.6991 1.15526 12.035 1.67433 11.8755 2.17224L11.4633 3.46421Z" fill="#A7A9AC"/>
</g>
<defs>
<clipPath id="clip0_327_186">
<rect width="16" height="23" fill="white"/>
</clipPath>
</defs>
</svg>
