<svg width="23" height="23" viewBox="0 0 23 23" fill="none" xmlns="http://www.w3.org/2000/svg">
<path fill-rule="evenodd" clip-rule="evenodd" d="M19.58 7.59485C19.9247 7.16334 19.8821 6.50249 19.4848 6.11881C19.0876 5.73512 18.4861 5.77389 18.1414 6.20541L9.65173 16.8334L5.35019 9.89161C5.05929 9.42215 4.46821 9.31405 4.02997 9.65016C3.59174 9.98628 3.47231 10.6393 3.76322 11.1088L8.602 18.9176C8.7061 19.0856 8.84865 19.2073 9.00887 19.279C9.40605 19.6416 9.99273 19.5968 10.3315 19.1728L19.58 7.59485Z" fill="#29D9CE"/>
<path d="M19.58 7.59485L19.1893 7.28279L19.1893 7.28279L19.58 7.59485ZM18.1414 6.20541L18.5321 6.51747L18.5321 6.51747L18.1414 6.20541ZM9.65173 16.8334L9.22671 17.0968L9.60003 17.6992L10.0424 17.1455L9.65173 16.8334ZM5.35019 9.89161L4.92517 10.155L5.35019 9.89161ZM4.02997 9.65016L4.33427 10.0469L4.02997 9.65016ZM3.76322 11.1088L3.3382 11.3721L3.3382 11.3721L3.76322 11.1088ZM8.602 18.9176L8.17698 19.181L8.17698 19.181L8.602 18.9176ZM9.00887 19.279L9.34602 18.9097L9.28653 18.8554L9.21298 18.8225L9.00887 19.279ZM10.3315 19.1728L10.7221 19.4849L10.3315 19.1728ZM19.1374 6.47844C19.3491 6.68292 19.373 7.05283 19.1893 7.28279L19.9706 7.90692C20.4763 7.27386 20.415 6.32206 19.8322 5.75917L19.1374 6.47844ZM18.5321 6.51747C18.6928 6.3162 18.9522 6.29948 19.1374 6.47844L19.8322 5.75917C19.223 5.17076 18.2794 5.23158 17.7507 5.89334L18.5321 6.51747ZM10.0424 17.1455L18.5321 6.51747L17.7507 5.89334L9.26106 16.5213L10.0424 17.1455ZM4.92517 10.155L9.22671 17.0968L10.0767 16.57L5.77521 9.62824L4.92517 10.155ZM4.33427 10.0469C4.5378 9.8908 4.79007 9.93694 4.92517 10.155L5.77521 9.62824C5.32851 8.90736 4.39861 8.7373 3.72568 9.25342L4.33427 10.0469ZM4.18823 10.8454C4.03265 10.5943 4.09988 10.2267 4.33427 10.0469L3.72568 9.25342C3.0836 9.74588 2.91198 10.6843 3.3382 11.3721L4.18823 10.8454ZM9.02702 18.6542L4.18823 10.8454L3.3382 11.3721L8.17698 19.181L9.02702 18.6542ZM9.21298 18.8225C9.14593 18.7925 9.07955 18.739 9.02702 18.6542L8.17698 19.181C8.33266 19.4322 8.55136 19.6221 8.80476 19.7354L9.21298 18.8225ZM9.94079 18.8607C9.7822 19.0593 9.52933 19.0771 9.34602 18.9097L8.67172 19.6482C9.28277 20.2062 10.2033 20.1344 10.7221 19.4849L9.94079 18.8607ZM19.1893 7.28279L9.94079 18.8607L10.7221 19.4849L19.9706 7.90692L19.1893 7.28279Z" fill="#29D9CE"/>
</svg>
