<svg width="16" height="13" viewBox="0 0 16 13" fill="none" xmlns="http://www.w3.org/2000/svg">
<path fill-rule="evenodd" clip-rule="evenodd" d="M14.3685 2.29472C14.7166 1.86495 14.6751 1.20822 14.2759 0.827885C13.8766 0.447548 13.2707 0.487627 12.9226 0.917402L6.41826 8.94748L3.08584 3.64391C2.79246 3.177 2.19699 3.069 1.75582 3.4027C1.31465 3.73639 1.19485 4.38541 1.48822 4.85232L5.20562 10.7686C5.30292 10.9234 5.43344 11.0388 5.58054 11.1117C5.62898 11.1949 5.68914 11.2721 5.76084 11.3404C6.16013 11.7207 6.76602 11.6806 7.11414 11.2508L14.3685 2.29472Z" fill="black"/>
<path d="M14.2759 0.827885L14.6215 0.46559L14.6215 0.46559L14.2759 0.827885ZM14.3685 2.29472L13.9801 1.98099L13.9801 1.98099L14.3685 2.29472ZM12.9226 0.917402L12.5342 0.603667L12.5342 0.603667L12.9226 0.917402ZM6.41826 8.94748L5.99443 9.21419L6.36589 9.80538L6.80666 9.26121L6.41826 8.94748ZM3.08584 3.64391L3.50967 3.37719L3.50967 3.37719L3.08584 3.64391ZM1.75582 3.4027L2.05692 3.80088L2.05692 3.80088L1.75582 3.4027ZM1.48822 4.85232L1.91206 4.5856L1.91206 4.5856L1.48822 4.85232ZM5.20562 10.7686L5.62946 10.5019L5.62946 10.5019L5.20562 10.7686ZM5.58054 11.1117L6.01307 10.8593L5.93785 10.7301L5.80382 10.6637L5.58054 11.1117ZM5.76084 11.3404L5.41514 11.7027L5.41514 11.7027L5.76084 11.3404ZM7.11414 11.2508L6.72574 10.9371L7.11414 11.2508ZM13.9302 1.19018C14.1412 1.3912 14.1641 1.75383 13.9801 1.98099L14.7569 2.60846C15.2692 1.97606 15.2091 1.02524 14.6215 0.46559L13.9302 1.19018ZM13.311 1.23114C13.4749 1.02872 13.7421 1.01105 13.9302 1.19018L14.6215 0.46559C14.011 -0.115953 13.0664 -0.053471 12.5342 0.603667L13.311 1.23114ZM6.80666 9.26121L13.311 1.23114L12.5342 0.603667L6.02986 8.63374L6.80666 9.26121ZM2.66201 3.91062L5.99443 9.21419L6.8421 8.68076L3.50967 3.37719L2.66201 3.91062ZM2.05692 3.80088C2.26394 3.6443 2.52434 3.69152 2.66201 3.91062L3.50967 3.37719C3.06059 2.66247 2.13005 2.49371 1.45473 3.00451L2.05692 3.80088ZM1.91206 4.5856C1.75651 4.33805 1.82301 3.97781 2.05692 3.80088L1.45473 3.00451C0.806301 3.49497 0.633183 4.43277 1.06439 5.11903L1.91206 4.5856ZM5.62946 10.5019L1.91206 4.5856L1.06439 5.11903L4.78179 11.0353L5.62946 10.5019ZM5.80382 10.6637C5.74019 10.6322 5.6786 10.5801 5.62946 10.5019L4.78179 11.0353C4.92724 11.2668 5.12669 11.4454 5.35727 11.5596L5.80382 10.6637ZM6.10653 10.9781C6.06992 10.9432 6.03867 10.9033 6.01307 10.8593L5.14801 11.364C5.21929 11.4864 5.30836 11.6009 5.41514 11.7027L6.10653 10.9781ZM6.72574 10.9371C6.56178 11.1395 6.29459 11.1572 6.10653 10.9781L5.41514 11.7027C6.02567 12.2842 6.97026 12.2217 7.50254 11.5646L6.72574 10.9371ZM13.9801 1.98099L6.72574 10.9371L7.50254 11.5646L14.7569 2.60846L13.9801 1.98099Z" fill="black"/>
</svg>
