<svg width="42" height="39" viewBox="0 0 42 39" fill="none" xmlns="http://www.w3.org/2000/svg">
<g clip-path="url(#clip0_324_37)">
<path d="M1.622 5.8032L4.74321 7.50212L9.34927 25.7993L7.18261 27.4983C6.66746 27.9042 6.36442 28.5206 6.36442 29.1671V32.3695C6.36442 33.5272 7.31897 34.4894 8.48564 34.5044L10.622 34.5345C10.5159 34.8653 10.4553 35.2261 10.4553 35.5869C10.4553 37.4663 12.0008 38.9998 13.8947 38.9998C15.7887 38.9998 17.3341 37.4663 17.3341 35.5869C17.3341 35.2562 17.2887 34.9404 17.1978 34.6247L31.4402 34.8202C31.3796 35.0607 31.3493 35.3163 31.3493 35.5719C31.3493 37.4512 32.8947 38.9848 34.7887 38.9848C36.6826 38.9848 38.2281 37.4512 38.2281 35.5719C38.2281 35.3464 38.2129 35.1209 38.1675 34.9104L39.1068 34.9254C40.2735 34.9254 41.2432 33.9782 41.2584 32.8205C41.2735 32.2492 41.0462 31.708 40.6523 31.302C40.2584 30.8961 39.7129 30.6706 39.1372 30.6556L10.6523 30.2646V30.1895L12.1675 29.0168C12.3038 29.0318 12.4402 29.0468 12.5765 29.0468L35.8796 29.2573C37.3341 29.2573 38.5917 28.265 38.9099 26.8518L41.925 13.8167C42.3038 12.1478 41.2584 10.494 39.5917 10.1182C37.925 9.74229 36.2432 10.7797 35.8644 12.4335L33.4099 23.048L15.0311 22.8976L10.4402 4.69063C10.2281 3.86372 9.68261 3.14206 8.92503 2.73612L4.622 0.375673C3.10685 -0.4362 1.21291 0.105049 0.379576 1.60852C-0.438606 3.09695 0.106849 4.97629 1.622 5.8032ZM1.87958 2.42039C2.25836 1.74383 3.10685 1.48824 3.78867 1.86411L8.10685 4.20952C8.44018 4.40497 8.69776 4.7207 8.78867 5.09657L13.5311 23.935C13.622 24.3109 13.9553 24.5665 14.3493 24.5815L34.0462 24.7619C34.4553 24.7469 34.7887 24.4913 34.8796 24.1004L37.4856 12.8244C37.6523 12.0727 38.425 11.6066 39.1826 11.772C39.9402 11.9524 40.4099 12.6891 40.2432 13.4408L37.2281 26.4759C37.0766 27.1074 36.5159 27.5584 35.8493 27.5584L12.5765 27.363C12.4553 27.363 12.3341 27.3479 12.1826 27.3028C11.9099 27.2276 11.622 27.2727 11.4099 27.4532L9.25836 29.137C9.04624 29.3024 8.94018 29.543 8.94018 29.7986V31.1216C8.94018 31.5877 9.31897 31.9636 9.78867 31.9636L39.1068 32.3695C39.2281 32.3695 39.3341 32.4146 39.4099 32.5048C39.4553 32.5499 39.5311 32.6552 39.5311 32.8205C39.5311 33.0611 39.3341 33.2566 39.0917 33.2566L36.8644 33.2265C36.5311 33.2265 36.2432 33.4069 36.0917 33.6926C35.9402 33.9782 35.9705 34.324 36.1675 34.5796C36.3947 34.8803 36.5159 35.2411 36.5159 35.602C36.5159 36.5492 35.7432 37.3159 34.7887 37.3159C33.8341 37.3159 33.0614 36.5492 33.0614 35.602C33.0614 35.1209 33.2735 34.76 33.4402 34.5495C33.6372 34.2939 33.6826 33.9482 33.5462 33.6625C33.4099 33.3768 33.1069 33.1814 32.7887 33.1814L15.7281 32.9408H15.7129C15.3644 32.9408 15.0614 33.1513 14.925 33.467C14.7887 33.7828 14.8644 34.1586 15.1069 34.3992C15.4402 34.73 15.622 35.166 15.622 35.617C15.622 36.5642 14.8493 37.331 13.8947 37.331C12.9402 37.331 12.1675 36.5642 12.1675 35.617C12.1675 35.1359 12.3644 34.6999 12.7281 34.3691C12.9856 34.1286 13.0614 33.7677 12.9402 33.452C12.819 33.1363 12.5008 32.9108 12.1523 32.9108L8.50079 32.8657C8.25836 32.8657 8.07655 32.6702 8.07655 32.4296V29.1671C8.07655 29.0318 8.13715 28.9115 8.24321 28.8213L10.8493 26.7766C11.1068 26.5661 11.2281 26.2354 11.1523 25.9046L6.30382 6.73535C6.24321 6.50983 6.0917 6.31438 5.87958 6.1941L2.44018 4.31476C1.75836 3.9389 1.50079 3.09695 1.87958 2.42039Z" fill="#29D9CE"/>
<path d="M26.1377 3.63818H22.0922C20.8801 3.63818 19.8952 4.61544 19.8952 5.83325V11.0202H18.6377C17.8649 11.0202 17.2589 11.3359 16.971 11.8772C16.6983 12.4184 16.8043 13.095 17.2589 13.7114L22.4104 20.5673C22.8346 21.1386 23.4558 21.4693 24.1073 21.4693C24.7589 21.4693 25.3801 21.1386 25.8043 20.5673L30.9558 13.7114C31.4255 13.095 31.5316 12.4184 31.2437 11.8772C30.971 11.3359 30.3649 11.0202 29.577 11.0202H28.3195V5.81821C28.3498 4.61544 27.3649 3.63818 26.1377 3.63818ZM29.5922 12.7041L24.4407 19.5599C24.2437 19.8306 23.9861 19.8306 23.7892 19.5599L18.6377 12.7041H20.7286C21.1983 12.7041 21.577 12.3282 21.577 11.8622V5.81821C21.577 5.54759 21.8043 5.32207 22.077 5.32207H26.1225C26.3952 5.32207 26.6225 5.54759 26.6225 5.81821V11.8622C26.6225 12.3282 27.0013 12.7041 27.471 12.7041H29.5922Z" fill="#29D9CE"/>
</g>
<defs>
<clipPath id="clip0_324_37">
<rect width="42" height="39" fill="white"/>
</clipPath>
</defs>
</svg>
