<svg width="50" height="50" viewBox="0 0 50 50" fill="none" xmlns="http://www.w3.org/2000/svg">
<path d="M25.5121 12.0254C18.8816 12.0254 13.4717 17.4202 13.4717 24.0658C13.4717 26.2508 14.0745 28.4208 15.2348 30.3045L15.5512 30.8168L14.3457 35.3075L18.8665 34.1019L19.3789 34.4033C21.2474 35.5185 23.3722 36.1062 25.5271 36.1062C32.1727 36.1062 37.5675 30.7113 37.5675 24.0658C37.5525 17.4202 32.1576 12.0254 25.5121 12.0254ZM32.5796 28.6016C32.1275 29.6866 31.0124 30.3949 29.8972 30.6059C28.8122 30.8168 27.9232 30.4702 26.9286 30.1387C26.0395 29.8373 25.1805 29.4154 24.3819 28.9332C22.7845 27.9537 21.3981 26.6426 20.2981 25.1357C19.9666 24.6686 19.6501 24.2014 19.3487 23.7041C18.972 23.0561 18.6254 22.3629 18.4446 21.6245C18.3692 21.3232 18.3391 21.0067 18.324 20.6902C18.3089 19.5751 18.7309 18.4449 19.62 17.7216C20.1323 17.2997 20.8858 17.1188 21.4584 17.4503C22.0763 17.7969 22.4078 18.686 22.6941 19.3189C22.9201 19.8012 23.1763 20.4491 23.0859 20.9916C22.9955 21.5341 22.5585 22.0013 22.2119 22.4082C21.9858 22.6794 21.9406 22.9205 22.1365 23.2068C23.2818 25.1206 24.8641 26.4919 26.9437 27.3207C27.23 27.4413 27.4409 27.3961 27.6218 27.1701C27.9834 26.733 28.33 25.859 28.8876 25.633C29.6109 25.3316 30.4096 25.7535 31.0124 26.1152C31.585 26.4618 32.5344 26.8687 32.6851 27.5769C32.7905 27.9235 32.7152 28.2852 32.5796 28.6016Z" fill="#29D9CE"/>
<path d="M25 0C11.1965 0 0 11.1965 0 25C0 38.8035 11.1965 50 25 50C38.8035 50 50 38.8035 50 25C50 11.1965 38.8035 0 25 0ZM25.5124 38.909C23.0561 38.909 20.6299 38.2911 18.4599 37.1157L10.3828 39.2857L12.5377 31.2387C11.3171 29.0386 10.6691 26.5672 10.6691 24.0657C10.6691 15.8831 17.3297 9.22242 25.5124 9.22242C33.695 9.22242 40.3556 15.8831 40.3556 24.0657C40.3556 32.2483 33.695 38.909 25.5124 38.909Z" fill="#29D9CE"/>
</svg>
