<svg width="50" height="50" viewBox="0 0 50 50" fill="none" xmlns="http://www.w3.org/2000/svg">
<circle cx="25" cy="25" r="25" fill="#29D9CE"/>
<path d="M27.357 30.8542C27.357 35.6408 23.5721 39.5004 18.9285 39.5004C14.2849 39.5004 10.5 35.6408 10.5 30.8542C10.5 26.0676 14.2849 22.208 18.9285 22.208C23.5721 22.208 27.357 26.0676 27.357 30.8542Z" fill="#010101" stroke="black"/>
<path d="M38.7856 17.317C38.7856 21.0933 35.8002 24.134 32.1428 24.134C28.4854 24.134 25.5 21.0933 25.5 17.317C25.5 13.5406 28.4854 10.5 32.1428 10.5C35.8002 10.5 38.7856 13.5406 38.7856 17.317Z" fill="#010101" stroke="black"/>
<path d="M39.5003 31.5849C39.5003 34.351 37.3144 36.5726 34.6432 36.5726C31.972 36.5726 29.7861 34.351 29.7861 31.5849C29.7861 28.8188 31.972 26.5972 34.6432 26.5972C37.3144 26.5972 39.5003 28.8188 39.5003 31.5849Z" fill="#010101" stroke="black"/>
<path d="M21.6399 15.8523C21.6399 17.6081 20.2535 19.0108 18.5685 19.0108C16.8835 19.0108 15.4971 17.6081 15.4971 15.8523C15.4971 14.0965 16.8835 12.6938 18.5685 12.6938C20.2535 12.6938 21.6399 14.0965 21.6399 15.8523Z" fill="#010101" stroke="black"/>
</svg>
