<svg width="50" height="54" viewBox="0 0 50 54" fill="none" xmlns="http://www.w3.org/2000/svg">
<path d="M25 0C11.1965 0 0 11.1965 0 25C0 38.8035 11.1965 50 25 50C38.8035 50 50 38.8035 50 25C50 11.1965 38.8035 0 25 0ZM36.9198 16.2598C36.8445 17.2694 36.2719 20.8107 35.6992 24.6383C34.8252 30.0633 33.8909 35.9855 33.8909 35.9855C33.8909 35.9855 33.7402 37.6432 32.5196 37.9295C31.299 38.2158 29.2646 36.9198 28.903 36.6335C28.6166 36.4225 23.478 33.1676 21.6094 31.5702C21.097 31.1332 20.5244 30.2743 21.6848 29.2646C24.2917 26.8837 27.396 23.915 29.2646 22.0464C30.1386 21.1724 30.9976 19.1531 27.381 21.6094C22.2574 25.1507 17.1941 28.4659 17.1941 28.4659C17.1941 28.4659 16.0338 29.1893 13.8638 28.5413C11.6938 27.8933 9.16215 27.0193 9.16215 27.0193C9.16215 27.0193 7.42917 25.9343 10.3978 24.774C10.3978 24.774 22.8903 19.6504 27.2303 17.8421C28.8879 17.1187 34.5238 14.8131 34.5238 14.8131C34.5238 14.8131 37.1308 13.8035 36.9198 16.2598Z" fill="#29D9CE"/>
</svg>
